
<svg viewBox="7 413 1503 1448" xmlns="http://www.w3.org/2000/svg" xmlns:xlink="http://www.w3.org/1999/xlink"><defs><radialGradient cx="61.608%" cy="9.001%" fx="61.608%" fy="9.001%" r="18.505%" id="b"><stop stop-color="#ff99ff" offset="0%"/><stop stop-color="#ff66ff" offset="100%"/></radialGradient><circle id="a" cx="1036" cy="161" r="9"/><mask id="c" x="0" y="0" width="18" height="18" fill="#fff"><use xlink:href="#a"/></mask><linearGradient x1="93.481%" y1="55.929%" x2="-1.188%" y2="105.046%" id="d"><stop stop-color="#9900cc" offset="0%"/><stop stop-color="#FFF" offset="97.67%"/></linearGradient><linearGradient x1="1.018%" y1="103.902%" x2="93.481%" y2="55.929%" id="e"><stop stop-color="#FFF" stop-opacity="0" offset="0%"/><stop stop-color="#9900cc" offset="100%"/></linearGradient></defs><g fill="none" fill-rule="evenodd" transform="translate(8 414)"><g stroke="#9933ff" stroke-linecap="square"><path d="M181.079 482.51L59.187 519.977l-6.508 37.47"/><path stroke-width=".5" d="M946.893 40.528l-56.874 16.267-47.173 104.542-8.88 80.605-9.565 115.19-32.366 233.345"/><path stroke-width=".5" d="M946.129 41.292l32.33 58.745 4.49 96.25 9.078 139.07 16.634 159.75-4.072 109.134"/><path stroke-width=".5" d="M889.079 54.937l147.743 108.369 177.374 116.469 153.902 177.097 19.438 209.61M979.154 96.845l160.309 118.333 147.916 91.97"/><path stroke-width=".5" d="M1105.1 128.465l110.017 151.029 35.169 203.742-7.996 87.016"/><path stroke-width=".5" d="M1140.051 215.524l101.883 157.774 123.074 125.804 62.588 127.721M1105.1 128.465l-68.553 34.563 21.947 146.303-8.885 238.573-3.228 27.824"/><path stroke-width=".5" d="M1142.225 148.132l-1.535 69.442-30.509 83.301 32.044 137.328 7.3 132.33m132.833-301.368l3.302 37.611-43.707 68.779 33.527 175.337 39.506 53.414m-24.268-295.378l74.887 190.03 5.156 77.23-7.622 65.884"/><path stroke-width=".5" d="M1280.232 266.127l88.74 185.679 55.86 143.484 75.184 42.194"/><path stroke-width=".5" d="M1141.5 144.73l146.428 161.087 115.624 157.423 18.715 104.703M715.607 4.274l50.15 24.933 40.713 82.308 29.297 130.85 10.816 156.693v213.01"/><path stroke-width=".5" d="M715.607 4.274L890.419 56.19l212.926 72.443 177.38 138.92M768.814 28.786l375.154 117.55M715.607 4.274L656.396 68.4 592.61 224.742l-52.16 242.492-17.937 137.623"/><path stroke-width=".5" d="M765.757 28.263L656.396 68.4 616.22 79.652l-223.255 83.913-197.881 149.163L56.972 441.214"/><path stroke-width=".5" d="M614.124 79.472l-150.528 95.62L322.48 299.304l-151.179 48.22-116.007 94.14"/><path stroke-width=".5" d="M473.618 49.157L656.396 68.4l188.978 95.166 213.552 144.47 190.967 174.943 67.669 97.302"/><path d="M1403.936 462.628l-38.244 37.308-102.385 62.1"/><path stroke-width=".5" d="M353.395 102.702l99.357-7.276L615.154 78.4l192.537 31.54 174.926 85.377 128.361 103.578 131.21 74.783"/><path stroke-width=".5" d="M559.4 29.058l55.175 51.684 26.43 102.069 32.059 147.116 27.63 154.996v93.95M559.4 29.058L452.737 97.224l10.81 77.815 30.635 121.532 43.027 144.237 53.013 148.098M452.4 96.232L306.87 191.79 195.121 314.173l-105.22 43.44"/><path stroke-width=".5" d="M476.338 51.944l-79.43 111.105-45.122 183.811-46.804 252.868m171.101-547.73L258.18 173.38l-62.96 139.26-23.665 33.665L59.892 521.87l-41.606 40.518"/><path stroke-width=".5" d="M194.627 313.065l-12.462 171.6 97.402 85.259m215.549-274.712l-122.91 147.441L294.3 584.82"/><path stroke-width=".5" d="M183.577 235.52l-12.434 111.355 36.121 130.368 52.721 96.71M90.68 356.338L59.558 520.229l31.124 93.44"/><path stroke-width=".5" d="M184.097 239.686L54.942 441.038 18.716 561.46"/><path stroke-width=".5" d="M1432.104 573.018l-27.386-108.807-123.743-196.946-138.004-119.133-37.355-19.111-158.795-90.312L717.353 4.307 561.105 27.991l-86.188 23.182-118.27 52.079-96.814 68.43-75.697 68.142-95.569 118.838-32.837 83.732L3.639 557.949"/><path stroke-width=".5" d="M54.04 440.192l30.228 92.096 20.46 70.012M354.21 103.19l-47.942 89.47 15.251 107.33 50.688 144.81 73.66 157.871"/><path stroke-width=".5" d="M258.457 171.197l137.66-8.468 196.801 60.651 230.617 133.905 224.929 190.154 12.905 11.832m-868.19-244.886l158.144 31.472L541.78 466.4l188.996 139.413"/><path stroke-width=".5" d="M50.311 574.115l33.736-42.17 96.533-48.735 191.083-41.022 165.077-3.013 163.652 44.905 160.555 95.446m-539.44-280.264l172.926-4.991 179.243 36.164 173.982 66.726 162.047 95.895 78.172 71.518"/><path stroke-width=".5" d="M183.243 240.923l123.573-49.11L464.89 174.63l176.028 6.999 194.063 59.295 157.953 91.961 150.675 105.2 131.203 112.359"/><path stroke-width=".5" d="M980.312 97.143l-173.51 11.291-164.45 72.73-48.894 42.237-98.712 71.805-142.987 51.568-170.92 137.214-20.987 73.985"/><path stroke-width=".5" d="M1037.535 162.696H843.971l-250.283 61.7-241.502 121.568m787.364-130.846l-155.795-22.277-147.809 49.14-162.264 87.265L537.59 440.348 429.907 597.972"/><path stroke-width=".5" d="M1281.148 266.916l-66.098 12.297-104.024 20.74-52.715 9.844-234.558 48.214-280.937 108.007-175.72 97.538m876.262-190.396l-99.429 64.224-134.332 56.35-181.168 88.042"/><path stroke-width=".5" d="M1058.78 309.965l-65.263 23.304-146.104 64.708-145.853 84.941-178.76 132.83m881.32-151.911l-35.774-6.1-117.47 24.996-201.65 65.308-34.365 12.59M322.758 299.752l-115.843 177.18-32.715 89.331m-3-219.421L83.489 533.028l-7.135 87.173"/><path d="M656.464 66.527L888.807 55.82M561.693 28.293l207.082-.963L949.95 38.998"/><path d="M716.079 3.823L560.738 28.17l-206.086 75.234m-.845-.173l-95.172 69.583-169.1 183.156"/></g><g transform="translate(50.386)" fill="#660066"><ellipse cx="664.929" cy="4.588" rx="4.586" ry="4.588"/><ellipse cx="716.9" cy="27.528" rx="4.586" ry="4.588"/><ellipse cx="839.186" cy="55.057" rx="4.586" ry="4.588"/><ellipse cx="897.271" cy="38.234" rx="4.586" ry="4.588"/><ellipse cx="1054.714" cy="128.465" rx="4.586" ry="4.588"/><ellipse cx="1092.929" cy="146.817" rx="4.586" ry="4.588"/><ellipse cx="1230.5" cy="266.106" rx="4.586" ry="4.588"/><ellipse cx="1352.786" cy="463.392" rx="4.586" ry="4.588"/><ellipse cx="1319.157" cy="455.746" rx="4.586" ry="4.588"/><ellipse cx="1201.457" cy="483.274" rx="4.586" ry="4.588"/><ellipse cx="1164.771" cy="278.341" rx="4.586" ry="4.588"/><ellipse cx="1008.857" cy="308.928" rx="4.586" ry="4.588"/><ellipse cx="985.929" cy="162.111" rx="4.586" ry="4.588"/><ellipse cx="929.371" cy="96.349" rx="4.586" ry="4.588"/><ellipse cx="756.643" cy="110.113" rx="4.586" ry="4.588"/><ellipse cx="793.329" cy="160.581" rx="4.586" ry="4.588"/><ellipse cx="773.457" cy="356.338" rx="4.586" ry="4.588"/><ellipse cx="998.157" cy="547.506" rx="4.586" ry="4.588"/><ellipse cx="542.643" cy="223.285" rx="4.586" ry="4.588"/><ellipse cx="605.314" cy="65.762" rx="4.586" ry="4.588"/><ellipse cx="424.943" cy="50.468" rx="4.586" ry="4.588"/><ellipse cx="345.457" cy="162.111" rx="4.586" ry="4.588"/><ellipse cx="304.186" cy="102.466" rx="4.586" ry="4.588"/><ellipse cx="256.036" cy="191.933" rx="3.821" ry="3.823"/><ellipse cx="271.321" cy="298.987" rx="3.821" ry="3.823"/><ellipse cx="321.764" cy="442.746" rx="3.821" ry="3.823"/><ellipse cx="444.05" cy="294.399" rx="3.821" ry="3.823"/><ellipse cx="413.479" cy="173.581" rx="3.821" ry="3.823"/><ellipse cx="401.25" cy="95.584" rx="3.821" ry="3.823"/><ellipse cx="564.807" cy="78.761" rx="3.821" ry="3.823"/><ellipse cx="590.793" cy="181.228" rx="3.821" ry="3.823"/><ellipse cx="622.893" cy="329.574" rx="3.821" ry="3.823"/><ellipse cx="784.921" cy="240.872" rx="3.821" ry="3.823"/><ellipse cx="933.193" cy="193.462" rx="3.821" ry="3.823"/><ellipse cx="1089.107" cy="214.873" rx="3.821" ry="3.823"/><ellipse cx="1060.064" cy="298.987" rx="3.821" ry="3.823"/><ellipse cx="942.364" cy="332.633" rx="3.821" ry="3.823"/><ellipse cx="959.179" cy="493.215" rx="3.821" ry="3.823"/><ellipse cx="797.15" cy="396.866" rx="3.821" ry="3.823"/><ellipse cx="1092.164" cy="436.629" rx="3.821" ry="3.823"/><ellipse cx="1191.521" cy="373.925" rx="3.821" ry="3.823"/><ellipse cx="1237.379" cy="305.105" rx="3.821" ry="3.823"/><ellipse cx="1315.336" cy="499.332" rx="3.821" ry="3.823"/><ellipse cx="1226.679" cy="551.33" rx="3.821" ry="3.823"/><ellipse cx="650.407" cy="484.038" rx="3.821" ry="3.823"/><ellipse cx="486.85" cy="439.687" rx="3.821" ry="3.823"/><ellipse cx="156.679" cy="476.392" rx="3.821" ry="3.823"/><ellipse cx="32.864" cy="531.448" rx="3.821" ry="3.823"/><ellipse cx="207.886" cy="171.287" rx="4.586" ry="4.588"/><ellipse cx="132.986" cy="240.108" rx="4.586" ry="4.588"/><ellipse cx="143.686" cy="313.516" rx="4.586" ry="4.588"/><ellipse cx="120.757" cy="347.162" rx="4.586" ry="4.588"/><ellipse cx="129.929" cy="483.274" rx="4.586" ry="4.588"/><ellipse cx="9.171" cy="519.978" rx="4.586" ry="4.588"/><ellipse cx="4.586" cy="441.981" rx="4.586" ry="4.588"/><ellipse cx="39.743" cy="356.338" rx="4.586" ry="4.588"/><ellipse cx="301.129" cy="345.633" rx="4.586" ry="4.588"/><ellipse cx="489.143" cy="466.451" rx="4.586" ry="4.588"/><ellipse cx="510.543" cy="27.528" rx="4.586" ry="4.588"/></g><ellipse fill="url(#b)" opacity=".275" cx="718.918" cy="726.55" rx="718.918" ry="719.55"/><circle fill="#FFF" cx="322" cy="299" r="6"/><circle fill="#07FDEA" cx="451.5" cy="95.5" r="5.5"/><circle fill="#FFF" cx="1036" cy="161" r="5"/><use stroke="#FFF" mask="url(#c)" stroke-width="2" xlink:href="#a"/><circle fill="#00FFF8" cx="889" cy="55" r="5"/><path d="M451.5 161.268S574.168 96.16 734.866 78.102c160.698-18.059 300.683 17.627 300.683 17.627" stroke="url(#d)" stroke-width="2" stroke-linecap="square" transform="matrix(-1 0 0 1 1487.049 0)"/><path d="M322.73 298.96s86.117-125.949 252.688-185.823C741.989 53.262 888.91 54.918 888.91 54.918" stroke="url(#e)" stroke-width="2" stroke-linecap="square"/></g></svg>